<?xml version="1.0" encoding="UTF-8" standalone="no"?>
<!DOCTYPE svg PUBLIC "-//W3C//DTD SVG 1.0//EN" "http://www.w3.org/TR/2001/REC-SVG-20010904/DTD/svg10.dtd">
<!-- Generated by Microsoft Visio 11.0, SVG Export, v1.0 rdmo_en.svg Page-1 -->
<svg xmlns="http://www.w3.org/2000/svg" xmlns:xlink="http://www.w3.org/1999/xlink" xmlns:ev="http://www.w3.org/2001/xml-events"
		xmlns:v="http://schemas.microsoft.com/visio/2003/SVGExtensions/" width="9.20308in" height="5.65978in"
		viewBox="0 0 662.622 407.504" xml:space="preserve" color-interpolation-filters="sRGB" class="st6">
	<v:documentProperties v:langID="1033" v:metric="true" v:viewMarkup="false">
		<v:userDefs>
			<v:ud v:nameU="msvNoAutoConnect" v:val="VT0(0):26"/>
		</v:userDefs>
	</v:documentProperties>

	<style type="text/css">
	<![CDATA[
		.st1 {fill:#ffffff;stroke:#101f70;stroke-linecap:round;stroke-linejoin:round;stroke-width:1.5}
		.st2 {fill:#101f70;font-family:Droid Serif;font-size:1.33333em}
		.st3 {fill:#101f70;font-family:Droid Sans;font-size:1.00001em}
		.st4 {font-size:1em}
		.st5 {fill:none;stroke:#101f70;stroke-linecap:round;stroke-linejoin:round;stroke-width:1.5}
		.st6 {fill:none;fill-rule:evenodd;font-size:12px;overflow:visible;stroke-linecap:square;stroke-miterlimit:3}
	]]>
	</style>

	<g v:mID="0" v:index="1" v:groupContext="foregroundPage">
		<title>Page-1</title>
		<v:pageProperties v:drawingScale="0.0393701" v:pageScale="0.0393701" v:drawingUnits="24" v:shadowOffsetX="8.50394"
				v:shadowOffsetY="-8.50394"/>
		<v:layer v:name="Connector" v:index="0"/>
		<g id="shape1-1" v:mID="1" v:groupContext="shape" transform="translate(217.925,-217.925)">
			<title>Sheet.1</title>
			<desc>Domain</desc>
			<v:textBlock v:margins="rect(4,4,4,4)" v:tabSpace="42.5197"/>
			<v:textRect cx="113.386" cy="393.331" width="226.78" height="28.3465"/>
			<rect x="0" y="379.157" width="226.772" height="28.3465" class="st1"/>
			<text x="83.17" y="398.13" class="st2" v:langID="1033"><v:paragraph v:horizAlign="1"/><v:tabList/>Domain</text>		</g>
		<g id="shape2-4" v:mID="2" v:groupContext="shape" transform="translate(161.232,-76.1929)">
			<title>Sheet.2</title>
			<desc>Options</desc>
			<v:textBlock v:margins="rect(4,4,4,4)" v:tabSpace="42.5197"/>
			<v:textRect cx="56.6929" cy="393.331" width="113.39" height="28.3465"/>
			<rect x="0" y="379.157" width="113.386" height="28.3465" class="st1"/>
			<text x="27.08" y="398.13" class="st2" v:langID="1033"><v:paragraph v:horizAlign="1"/><v:tabList/>Options</text>		</g>
		<g id="shape3-7" v:mID="3" v:groupContext="shape" transform="translate(388.004,-19.5)">
			<title>Sheet.3</title>
			<desc>Conditions</desc>
			<v:textBlock v:margins="rect(4,4,4,4)" v:tabSpace="42.5197"/>
			<v:textRect cx="56.6929" cy="364.984" width="113.39" height="85.0394"/>
			<rect x="0" y="322.465" width="113.386" height="85.0394" class="st1"/>
			<text x="15.77" y="369.78" class="st2" v:langID="1033"><v:paragraph v:horizAlign="1"/><v:tabList/>Conditions</text>		</g>
		<g id="shape4-10" v:mID="4" v:groupContext="shape" transform="translate(19.5,-246.272)">
			<title>Sheet.4</title>
			<desc>Questions</desc>
			<v:textBlock v:margins="rect(4,4,4,4)" v:tabSpace="42.5197"/>
			<v:textRect cx="56.6929" cy="393.331" width="113.39" height="28.3465"/>
			<rect x="0" y="379.157" width="113.386" height="28.3465" class="st1"/>
			<text x="19.03" y="398.13" class="st2" v:langID="1033"><v:paragraph v:horizAlign="1"/><v:tabList/>Questions</text>		</g>
		<g id="shape5-13" v:mID="5" v:groupContext="shape" transform="translate(529.736,-217.925)">
			<title>Sheet.5</title>
			<desc>Views</desc>
			<v:textBlock v:margins="rect(4,4,4,4)" v:tabSpace="42.5197"/>
			<v:textRect cx="56.6929" cy="364.984" width="113.39" height="85.0394"/>
			<rect x="0" y="322.465" width="113.386" height="85.0394" class="st1"/>
			<text x="33.95" y="369.78" class="st2" v:langID="1033"><v:paragraph v:horizAlign="1"/><v:tabList/>Views</text>		</g>
		<g id="shape6-16" v:mID="6" v:groupContext="shape" transform="translate(529.736,-104.539)">
			<title>Sheet.6</title>
			<desc>Tasks</desc>
			<v:textBlock v:margins="rect(4,4,4,4)" v:tabSpace="42.5197"/>
			<v:textRect cx="56.6929" cy="364.984" width="113.39" height="85.0394"/>
			<rect x="0" y="322.465" width="113.386" height="85.0394" class="st1"/>
			<text x="35.39" y="369.78" class="st2" v:langID="1033"><v:paragraph v:horizAlign="1"/><v:tabList/>Tasks</text>		</g>
		<g id="shape7-19" v:mID="7" v:groupContext="shape" transform="translate(246.272,-359.657)">
			<title>Sheet.7</title>
			<desc>Projects</desc>
			<v:textBlock v:margins="rect(4,4,4,4)" v:tabSpace="42.5197"/>
			<v:textRect cx="85.0394" cy="393.331" width="170.08" height="28.3465"/>
			<rect x="0" y="379.157" width="170.079" height="28.3465" class="st1"/>
			<text x="54.78" y="398.13" class="st2" v:langID="1033"><v:paragraph v:horizAlign="1"/><v:tabList/>Projects</text>		</g>
		<g id="shape8-22" v:mID="8" v:groupContext="shape" transform="translate(161.232,-19.5)">
			<title>Sheet.8</title>
			<desc>Option sets Options</desc>
			<v:textBlock v:margins="rect(4,4,4,4)" v:tabSpace="42.5197"/>
			<v:textRect cx="56.6929" cy="379.157" width="113.39" height="56.6929"/>
			<rect x="0" y="350.811" width="113.386" height="56.6929" class="st1"/>
			<text x="25.93" y="374.36" class="st3" v:langID="1033"><v:paragraph v:spLine="-1.6" v:horizAlign="1"/><v:tabList/>Option sets<v:newlineChar/><tspan
						x="35.44" dy="1.6em" class="st4">Options</tspan></text>		</g>
		<g id="shape9-26" v:mID="9" v:groupContext="shape" transform="translate(217.925,-161.232)">
			<title>Sheet.9</title>
			<desc>Attributes Entities</desc>
			<v:textBlock v:margins="rect(4,4,4,4)" v:tabSpace="42.5197"/>
			<v:textRect cx="113.386" cy="379.157" width="226.78" height="56.6929"/>
			<rect x="0" y="350.811" width="226.772" height="56.6929" class="st1"/>
			<text x="86.73" y="374.36" class="st3" v:langID="1033"><v:paragraph v:spLine="-1.6" v:horizAlign="1"/><v:tabList/>Attributes<v:newlineChar/><tspan
						x="93.6" dy="1.6em" class="st4">Entities</tspan></text>		</g>
		<g id="shape10-30" v:mID="10" v:groupContext="shape" transform="translate(19.5,-132.886)">
			<title>Sheet.10</title>
			<desc>Catalogs Sections Subsections Question sets Questions</desc>
			<v:textBlock v:margins="rect(4,4,4,4)" v:tabSpace="42.5197"/>
			<v:textRect cx="56.6929" cy="350.811" width="113.39" height="113.386"/>
			<rect x="0" y="294.118" width="113.386" height="113.386" class="st1"/>
			<text x="33.84" y="317.21" class="st3" v:langID="1033"><v:paragraph v:spLine="-1.6" v:horizAlign="1"/><v:tabList/>Catalogs<v:newlineChar/><tspan
						x="34.3" dy="1.6em" class="st4">Sections<v:newlineChar/></tspan><tspan x="24.55" dy="1.6em" class="st4">Subsections<v:newlineChar/></tspan><tspan
						x="20" dy="1.6em" class="st4">Question sets<v:newlineChar/></tspan><tspan x="29.51" dy="1.6em" class="st4">Questions</tspan></text>		</g>
		<g id="shape11-37" v:mID="11" v:groupContext="shape" transform="translate(246.272,-302.965)">
			<title>Sheet.11</title>
			<desc>Snapshots Values</desc>
			<v:textBlock v:margins="rect(4,4,4,4)" v:tabSpace="42.5197"/>
			<v:textRect cx="85.0394" cy="379.157" width="170.08" height="56.6929"/>
			<rect x="0" y="350.811" width="170.079" height="56.6929" class="st1"/>
			<text x="57.25" y="374.36" class="st3" v:langID="1033"><v:paragraph v:spLine="-1.6" v:horizAlign="1"/><v:tabList/>Snapshots<v:newlineChar/><tspan
						x="67.44" dy="1.6em" class="st4">Values</tspan></text>		</g>
		<g id="shape12-41" v:mID="12" v:groupContext="shape" transform="translate(209.421,-186.744) scale(-1,1)">
			<title>45 degree single</title>
			<v:userDefs>
				<v:ud v:nameU="visVersion" v:val="VT0(14):26"/>
			</v:userDefs>
			<path d="M0 390.5 L17.01 373.49 L17.01 384.71 L62.36 384.71 L62.36 396.28 L17.01 396.28 L17.01 407.5 L0 390.5 Z"
					class="st5"/>
		</g>
		<g id="shape13-43" v:mID="13" v:groupContext="shape" transform="translate(-144.224,257.61) rotate(-90) scale(-1,1)">
			<title>45 degree single.13</title>
			<v:userDefs>
				<v:ud v:nameU="visVersion" v:val="VT0(14):26"/>
			</v:userDefs>
			<path d="M0 390.5 L15.31 373.49 L15.31 384.71 L34.02 384.71 L34.02 396.28 L15.31 396.28 L15.31 407.5 L0 390.5 Z"
					class="st5"/>
		</g>
		<g id="shape14-45" v:mID="14" v:groupContext="shape" transform="translate(25.8543,257.61) rotate(-90) scale(-1,1)">
			<title>45 degree single.14</title>
			<v:userDefs>
				<v:ud v:nameU="visVersion" v:val="VT0(14):26"/>
			</v:userDefs>
			<path d="M0 390.5 L15.31 373.49 L15.31 384.71 L34.02 384.71 L34.02 396.28 L15.31 396.28 L15.31 407.5 L0 390.5 Z"
					class="st5"/>
		</g>
		<g id="shape15-47" v:mID="15" v:groupContext="shape" transform="translate(285.957,-42.1772)">
			<title>45 degree double</title>
			<v:userDefs>
				<v:ud v:nameU="visVersion" v:val="VT0(14):26"/>
			</v:userDefs>
			<path d="M0 390.5 L17.01 373.49 L17.01 384.71 L73.7 384.71 L73.7 373.49 L90.71 390.5 L73.7 407.5 L73.7 396.28 L17.01
						 396.28 L17.01 407.5 L0 390.5 Z" class="st5"/>
		</g>
		<g id="shape17-49" v:mID="17" v:groupContext="shape" transform="translate(721.807,149.894) rotate(90) scale(-1,1)">
			<title>45 degree single.17</title>
			<v:userDefs>
				<v:ud v:nameU="visVersion" v:val="VT0(14):26"/>
			</v:userDefs>
			<path d="M0 390.5 L15.31 373.49 L15.31 384.71 L34.02 384.71 L34.02 396.28 L15.31 396.28 L15.31 407.5 L0 390.5 Z"
					class="st5"/>
		</g>
		<g id="shape18-51" v:mID="18" v:groupContext="shape" transform="translate(458.87,628.264) scale(1,-1)">
			<title>45 degree single.18</title>
			<v:userDefs>
				<v:ud v:nameU="visVersion" v:val="VT0(14):26"/>
			</v:userDefs>
			<path d="M0 396.17 L11.34 384.83 L11.34 392.31 L56.69 392.31 L56.69 400.02 L11.34 400.02 L11.34 407.5 L0 396.17 Z"
					class="st5"/>
		</g>
		<g id="shape16-53" v:mID="16" v:groupContext="shape" transform="translate(458.87,571.571) scale(1,-1)">
			<title>45 degree single.16</title>
			<v:userDefs>
				<v:ud v:nameU="visVersion" v:val="VT0(14):26"/>
			</v:userDefs>
			<path d="M0 396.17 L11.34 384.83 L11.34 392.31 L56.69 392.31 L56.69 400.02 L11.34 400.02 L11.34 407.5 L0 396.17 Z"
					class="st5"/>
		</g>
	</g>
</svg>
