<?xml version="1.0" encoding="UTF-8" standalone="no"?>
<svg
   id="Guides"
   viewBox="0 0 187.88026 38.310135"
   version="1.1"
   sodipodi:docname="keycloak_logo_200px.svg"
   width="187.88026"
   height="38.310135"
   inkscape:version="1.1.1 (3bf5ae0d25, 2021-09-20)"
   xmlns:inkscape="http://www.inkscape.org/namespaces/inkscape"
   xmlns:sodipodi="http://sodipodi.sourceforge.net/DTD/sodipodi-0.dtd"
   xmlns="http://www.w3.org/2000/svg"
   xmlns:svg="http://www.w3.org/2000/svg"
   xmlns:rdf="http://www.w3.org/1999/02/22-rdf-syntax-ns#"
   xmlns:cc="http://creativecommons.org/ns#"
   xmlns:dc="http://purl.org/dc/elements/1.1/">
  <sodipodi:namedview
     id="namedview307"
     pagecolor="#ffffff"
     bordercolor="#666666"
     borderopacity="1.0"
     inkscape:pageshadow="2"
     inkscape:pageopacity="0.0"
     inkscape:pagecheckerboard="0"
     showgrid="false"
     fit-margin-top="0"
     fit-margin-left="0"
     fit-margin-right="0"
     fit-margin-bottom="0"
     inkscape:zoom="3.88"
     inkscape:cx="64.304124"
     inkscape:cy="19.072165"
     inkscape:window-width="1920"
     inkscape:window-height="1043"
     inkscape:window-x="0"
     inkscape:window-y="0"
     inkscape:window-maximized="1"
     inkscape:current-layer="Guides" />
  <defs
     id="defs12">
    <style
       id="style2">.cls-1{fill:none;}.cls-2{fill:#4d4d4d;}.cls-3{clip-path:url(#clip-path);}.cls-4{fill:url(#linear-gradient);}.cls-5{fill:#e1e1e1;}.cls-6{fill:#585858;}.cls-7{fill:#696969;}.cls-8{fill:#5e5e5e;}.cls-9{fill:#6d6d6d;}.cls-10{fill:#636363;}.cls-11{fill:#737373;}.cls-12{fill:#757575;}.cls-13{fill:#646464;}.cls-14{fill:#6c6c6c;}.cls-15{fill:#606060;}.cls-16{fill:#707070;}.cls-17{fill:#767676;}.cls-18{fill:#797979;}.cls-19{fill:#7f7f7f;}.cls-20{fill:#868686;}.cls-21{fill:#8a8a8a;}.cls-22{fill:#7d7d7d;}.cls-23{fill:#919191;}.cls-24{fill:#858585;}.cls-25{fill:#929292;}.cls-26{fill:#898989;}.cls-27{fill:#8f8f8f;}.cls-28{fill:#999;}.cls-29{fill:#979797;}.cls-30{fill:#9f9f9f;}.cls-31{fill:#a6a6a6;}.cls-32{fill:#a0a0a0;}.cls-33{fill:#9b9b9b;}.cls-34{fill:#9d9d9d;}.cls-35{fill:#a3a3a3;}.cls-36{fill:#aaa;}.cls-37{fill:#a9a9a9;}.cls-38{fill:#989898;}.cls-39{fill:#b1b1b1;}.cls-40{fill:#9e9e9e;}.cls-41{fill:#a4a4a4;}.cls-42{fill:#aeaeae;}.cls-43{fill:#ababab;}.cls-44{fill:#b4b4b4;}.cls-45{fill:#a2a2a2;}.cls-46{fill:#bcbcbc;}.cls-47{fill:#b8b8b8;}.cls-48{fill:#b0b0b0;}.cls-49{fill:#b9b9b9;}.cls-50{fill:#bfbfbf;}.cls-51{fill:#b5b5b5;}.cls-52{fill:#bdbdbd;}.cls-53{fill:#b6b6b6;}.cls-54{fill:#c3c3c3;}.cls-55{fill:#c9c9c9;}.cls-56{fill:#bbb;}.cls-57{fill:#c1c1c1;}.cls-58{fill:#c6c6c6;}.cls-59{fill:#cdcdcd;}.cls-60{fill:#ccc;}.cls-61{fill:#c2c2c2;}.cls-62{fill:#c8c8c8;}.cls-63{fill:#c7c7c7;}.cls-64{fill:#cecece;}.cls-65{fill:#d3d3d3;}.cls-66{fill:#d5d5d5;}.cls-67{fill:#d0d0d0;}.cls-68{fill:#d9d9d9;}.cls-69{fill:#d4d4d4;}.cls-70{fill:#d8d8d8;}.cls-71{fill:#e2e2e2;}.cls-72{fill:#e4e4e4;}.cls-73{fill:#dedede;}.cls-74{fill:#c5c5c5;}.cls-75{fill:#d1d1d1;}.cls-76{fill:#cbcbcb;}.cls-77{fill:#d7d7d7;}.cls-78{fill:#ddd;}.cls-79{fill:#e3e3e3;}.cls-80{fill:#00b8e3;}.cls-81{fill:#33c6e9;}.cls-82{fill:#008aaa;}</style>
    <clipPath
       id="clip-path">
      <path
         class="cls-1"
         d="m 193.75,109.56 h -4.51 a 0.19,0.19 0 0 1 -0.15,-0.08 l -0.35,-0.48 -1,-1.29 -2.63,-3.54 -1.47,-2 a 0.19,0.19 0 0 0 -0.29,0 l -1.54,1.71 -0.17,0.2 a 0.18,0.18 0 0 0 0,0.12 v 5.16 a 0.19,0.19 0 0 1 -0.19,0.19 h -3.89 a 0.19,0.19 0 0 1 -0.19,-0.19 V 90.64 a 0.19,0.19 0 0 1 0.19,-0.19 h 3.89 a 0.19,0.19 0 0 1 0.19,0.19 v 7.18 a 0.19,0.19 0 0 0 0.32,0.13 l 2.15,-2.33 3.19,-3.47 1.5,-1.63 a 0.19,0.19 0 0 1 0.14,-0.06 h 4.77 a 0.19,0.19 0 0 1 0.19,0.19 0.21,0.21 0 0 1 0,0.12 l -2.15,2.39 -3.58,4 -1.49,1.65 a 0.18,0.18 0 0 0 0,0.23 l 1.86,2.6 1.69,2.38 0.21,0.29 1.28,1.79 1.28,1.9 0.93,1.3 a 0.19,0.19 0 0 1 -0.18,0.26 z m -17.89,-0.26 a 0.19,0.19 0 0 1 -0.17,0.26 h -4.13 a 0.18,0.18 0 0 1 -0.17,-0.11 l -0.08,-0.18 v 0 l -1.6,-3.71 a 0.18,0.18 0 0 0 -0.17,-0.11 h -7.76 a 0.19,0.19 0 0 0 -0.17,0.11 l -0.24,0.55 -1.44,3.35 v 0 a 0.19,0.19 0 0 1 -0.17,0.11 h -4.13 a 0.19,0.19 0 0 1 -0.17,-0.26 l 0.29,-0.66 1.95,-4.51 v 0 l 0.07,-0.16 0.08,-0.19 v -0.09 l 0.65,-1.5 v 0 l 5,-11.59 a 0.19,0.19 0 0 1 0.17,-0.11 h 3.88 a 0.18,0.18 0 0 1 0.17,0.11 l 2.6,6 1.29,3 1.44,3.33 2.73,6.31 z m -7.93,-7.87 -0.27,-0.64 -0.91,-2.14 -0.91,-2.11 a 0.19,0.19 0 0 0 -0.35,0 l -1.62,3.75 -0.5,1.14 a 0.19,0.19 0 0 0 0.17,0.26 h 4.22 a 0.19,0.19 0 0 0 0.18,-0.27 z m -12.25,2.15 a 8.18,8.18 0 0 1 -0.38,0.85 9.59,9.59 0 0 1 -1.85,2.48 v 0 a 10.2,10.2 0 0 1 -1,0.9 9.7,9.7 0 0 1 -5.39,1.91 h -0.7 a 10,10 0 0 1 -5.59,-1.58 10.15,10.15 0 0 1 -1.54,-1.25 c -0.19,-0.19 -0.37,-0.38 -0.54,-0.57 a 9.44,9.44 0 0 1 -2.35,-6.46 10.84,10.84 0 0 1 0.12,-1.66 v 0 l -0.09,-0.13 0.14,-0.21 a 9.26,9.26 0 0 1 2.72,-5 10.17,10.17 0 0 1 1.44,-1.18 9.39,9.39 0 0 1 3.33,-1.44 v 0 a 11,11 0 0 1 2.27,-0.23 9.81,9.81 0 0 1 7.13,2.83 9.35,9.35 0 0 1 2.85,6 v 0 c 0,0.34 0,0.7 0,1.05 a 10,10 0 0 1 -0.56,3.69 z M 152,99.9 a 6.26,6.26 0 0 0 -1.47,-4.16 l -0.17,-0.2 a 5.24,5.24 0 0 0 -4,-1.8 5.77,5.77 0 0 0 -1.23,0.13 5.26,5.26 0 0 0 -2.8,1.67 6.21,6.21 0 0 0 -1.64,4.21 c 0,0.05 0,0.1 0,0.15 a 6.2,6.2 0 0 0 1.64,4.35 5.44,5.44 0 0 0 0.5,0.48 5.24,5.24 0 0 0 1.08,0.74 5.59,5.59 0 0 0 5,0 5.43,5.43 0 0 0 1.33,-1 l 0.17,-0.17 a 6.2,6.2 0 0 0 0.92,-1.31 6.39,6.39 0 0 0 0.67,-3.09 z m -15.94,5.86 h -7.77 a 0.19,0.19 0 0 1 -0.19,-0.18 V 90.64 a 0.18,0.18 0 0 0 -0.11,-0.17 H 127.91 124 a 0.19,0.19 0 0 0 -0.19,0.19 v 18.73 a 0.19,0.19 0 0 0 0.19,0.19 h 12 a 0.19,0.19 0 0 0 0.19,-0.19 v -3.43 a 0.19,0.19 0 0 0 -0.13,-0.2 z m -21.14,-15.7 c -0.31,0 -0.62,0 -0.94,0 a 9.81,9.81 0 0 0 -7.12,2.84 10.25,10.25 0 0 0 -1,1.09 v 0 a 9.55,9.55 0 0 0 -1.95,6 10.29,10.29 0 0 0 0.62,3.64 8.89,8.89 0 0 0 1,1.87 v 0 a 9.43,9.43 0 0 0 1.27,1.52 9.67,9.67 0 0 0 1.91,1.45 v 0 l 0.52,0.28 0.39,0.18 v 0 a 10.9,10.9 0 0 0 4.43,0.87 9.88,9.88 0 0 0 1.42,-0.1 v 0 c 0.3,0 0.59,-0.1 0.88,-0.17 a 9.91,9.91 0 0 0 4.45,-2.46 c 0.27,-0.25 0.54,-0.52 0.8,-0.8 a 0.19,0.19 0 0 0 0,-0.26 l -2.46,-2.54 a 0.18,0.18 0 0 0 -0.17,-0.05 0.2,0.2 0 0 0 -0.11,0.07 6.26,6.26 0 0 1 -5,2.33 5.57,5.57 0 0 1 -1.93,-0.33 5.42,5.42 0 0 1 -2,-1.29 5.22,5.22 0 0 1 -1.25,-2 6.78,6.78 0 0 1 -0.37,-2.29 5.53,5.53 0 0 1 1.48,-4 l 0.23,-0.22 a 5.86,5.86 0 0 1 4.11,-1.57 6.17,6.17 0 0 1 4.89,2.35 0.18,0.18 0 0 0 0.28,0 l 2.4,-2.72 a 0.19,0.19 0 0 0 0,-0.25 10,10 0 0 0 -6.77,-3.45 z m -10.77,1.94 0.72,-1.26 a 0.19,0.19 0 0 0 -0.16,-0.28 h -4.19 a 0.19,0.19 0 0 0 -0.16,0.09 l -3.8,6.53 v 0 l -0.2,0.15 -0.15,0.12 A 0.2,0.2 0 0 1 96.13,97.28 L 96.07,97.17 96,97 92.25,90.54 a 0.19,0.19 0 0 0 -0.16,-0.09 h -4.23 a 0.19,0.19 0 0 0 -0.16,0.28 l 1.82,3.18 3.29,5.75 1.32,2.34 a 0.19,0.19 0 0 1 0,0.09 v 7.31 a 0.19,0.19 0 0 0 0.19,0.19 h 3.89 a 0.19,0.19 0 0 0 0.19,-0.19 v -7.31 a 0.19,0.19 0 0 1 0,-0.09 l 0.94,-1.64 3.56,-6.22 0.73,-1.27 0.48,-0.84 v 0 z M 86.2,105.79 H 76.76 A 0.19,0.19 0 0 1 76.57,105.6 V 102 a 0.19,0.19 0 0 1 0.19,-0.19 h 8.18 a 0.19,0.19 0 0 0 0.19,-0.19 V 98.37 A 0.19,0.19 0 0 0 84.94,98.18 H 76.76 A 0.19,0.19 0 0 1 76.58,98 v -3.56 a 0.19,0.19 0 0 1 0.19,-0.19 h 9.13 a 0.19,0.19 0 0 0 0.19,-0.19 V 90.64 A 0.19,0.19 0 0 0 85.9,90.45 H 72.5 a 0.19,0.19 0 0 0 -0.19,0.19 v 18.73 a 0.19,0.19 0 0 0 0.19,0.19 h 13.7 a 0.19,0.19 0 0 0 0.19,-0.19 V 106 A 0.19,0.19 0 0 0 86.2,105.79 Z M 70.12,109 68.35,106.52 66.53,104 66.46,103.9 63,99 a 0.19,0.19 0 0 1 0,-0.23 l 1.7,-1.89 v 0 l 1.4,-1.56 1.35,-1.5 2.77,-3.07 A 0.19,0.19 0 0 0 70.08,90.44 H 65.3 a 0.19,0.19 0 0 0 -0.14,0.06 l -3,3.21 -3.88,4.22 A 0.19,0.19 0 0 1 58,97.82 v -7.18 a 0.19,0.19 0 0 0 -0.19,-0.18 h -3.88 a 0.19,0.19 0 0 0 -0.19,0.19 v 18.73 a 0.19,0.19 0 0 0 0.19,0.19 h 3.89 a 0.19,0.19 0 0 0 0.19,-0.19 v -5.16 a 0.18,0.18 0 0 1 0,-0.12 l 0.81,-0.91 0.9,-1 a 0.19,0.19 0 0 1 0.29,0 l 2.7,3.63 1.94,2.61 0.78,1 a 0.18,0.18 0 0 0 0.15,0.08 h 4.52 a 0.19,0.19 0 0 0 0.15,-0.3 z M 51.52,90.4 H 11.74 a 0.36,0.36 0 0 0 -0.3,0.17 v 0 l -0.2,0.34 -2.44,4.26 -2.69,4.66 a 0.35,0.35 0 0 0 0,0.35 l 0.58,1 4.74,8.2 a 0.35,0.35 0 0 0 0.31,0.18 h 39.78 a 0.39,0.39 0 0 0 0.39,-0.39 V 90.83 a 0.4,0.4 0 0 0 -0.4,-0.4 z"
         id="path4" />
    </clipPath>
    <linearGradient
       id="linear-gradient"
       x1="5.6300001"
       y1="100.28"
       x2="195.08"
       y2="100.28"
       gradientUnits="userSpaceOnUse">
      <stop
         offset="0"
         stop-color="#e6e6e6"
         id="stop7" />
      <stop
         offset="1"
         stop-color="#595959"
         id="stop9" />
    </linearGradient>
  </defs>
  <title
     id="title14">keycloak_deliverables</title>
  <path
     class="cls-2"
     d="m 38.826891,9.57 a 0.35,0.35 0 0 1 -0.31,-0.17 l -5.32,-9.26 a 0.36,0.36 0 0 0 -0.26,-0.14 h -21.74 a 0.35,0.35 0 0 0 -0.26,0.14 l -5.5699999,9.6 v 0 l -5.31999999,9.22 a 0.36,0.36 0 0 0 0,0.35 l 5.31999999,9.22 5.5699999,9.61 a 0.35,0.35 0 0 0 0.31,0.17 h 21.69 a 0.36,0.36 0 0 0 0.31,-0.17 l 5.32,-9.22 a 0.35,0.35 0 0 1 0.31,-0.17 h 6.62 a 0.4,0.4 0 0 0 0.4,-0.4 V 9.97 a 0.4,0.4 0 0 0 -0.4,-0.4 z"
     id="path16" />
  <g
     class="cls-3"
     clip-path="url(#clip-path)"
     id="g20"
     transform="translate(-6.0631089,-80.86)">
    <rect
       class="cls-4"
       x="5.6300001"
       y="87.489998"
       width="189.45"
       height="25.59"
       id="rect18"
       style="fill:url(#linear-gradient)" />
  </g>
  <path
     class="cls-5"
     d="m 6.5768911,18.14 -5.93999999,2.16 -0.58,-1 a 0.35,0.35 0 0 1 0,-0.35 L 2.7368911,14.3 Z"
     id="path22" />
  <path
     class="cls-6"
     d="m 187.68689,28.7 h -2.45 l -2.24,-1.4 3.94,-0.16 0.93,1.3 a 0.19,0.19 0 0 1 -0.18,0.26 z"
     id="path24" />
  <path
     class="cls-6"
     d="m 185.23689,28.7 h -2.06 a 0.19,0.19 0 0 1 -0.15,-0.08 l -0.35,-0.48 0.33,-0.85 z"
     id="path26" />
  <path
     class="cls-7"
     d="m 187.81689,9.78 a 0.21,0.21 0 0 1 0,0.12 l -2.15,2.39 -0.13,-1.34 z"
     id="path28" />
  <path
     class="cls-8"
     d="m 186.93689,27.14 -3.91,0.2 2.58,-2.07 z"
     id="path30" />
  <path
     class="cls-9"
     d="m 187.81689,9.78 -2.33,1.17 0.4,-1.36 h 1.75 a 0.19,0.19 0 0 1 0.18,0.19 z"
     id="path32" />
  <path
     class="cls-10"
     d="m 185.57689,25.22 -2.58,2.07 1.3,-3.87 z"
     id="path34" />
  <polygon
     class="cls-11"
     points="189.28,90.45 191.95,90.45 191.55,91.81 "
     id="polygon36"
     transform="translate(-6.0631089,-80.86)" />
  <path
     class="cls-12"
     d="m 175.55689,9.78 v 1.93 l -4.26,0.33 V 9.78 a 0.19,0.19 0 0 1 0.19,-0.19 h 3.89 a 0.19,0.19 0 0 1 0.18,0.19 z"
     id="path38" />
  <path
     class="cls-12"
     d="m 185.48689,10.95 -4.26,0.33 1.5,-1.63 a 0.19,0.19 0 0 1 0.14,-0.06 h 0.37 z"
     id="path40" />
  <path
     class="cls-13"
     d="m 184.29689,23.43 -1.3,3.87 -1.29,-0.44 -2.63,-3.54 3.32,-2.56 1.69,2.38 z"
     id="path42" />
  <polygon
     class="cls-9"
     points="177.36,93.06 177.36,92.9 181.62,92.57 181.62,94.67 "
     id="polygon44"
     transform="translate(-6.0631089,-80.86)" />
  <polygon
     class="cls-9"
     points="184.09,95.61 187.29,92.14 191.55,91.81 191.68,93.15 188.11,97.13 "
     id="polygon46"
     transform="translate(-6.0631089,-80.86)" />
  <path
     class="cls-14"
     d="m 182.39689,20.75 -3.32,2.56 -1.47,-2 a 0.19,0.19 0 0 0 -0.29,0 l -1.54,1.71 -4.49,-10.18 V 12.2 l 4.26,1.61 v 3.14 a 0.19,0.19 0 0 0 0.32,0.13 l 2.15,-2.33 4,1.52 -1.49,1.65 a 0.18,0.18 0 0 0 0,0.23 z"
     id="path48" />
  <polygon
     class="cls-15"
     points="187.77,107.71 189.06,108.15 188.73,109 "
     id="polygon50"
     transform="translate(-6.0631089,-80.86)" />
  <path
     class="cls-16"
     d="m 175.78689,23.03 -0.17,0.2 a 0.18,0.18 0 0 0 0,0.12 v 0.79 l -4.26,-3.62 v -7.67 z"
     id="path52" />
  <path
     class="cls-10"
     d="m 169.79689,28.43 a 0.19,0.19 0 0 1 -0.17,0.26 h -0.62 l 0.76,-0.35 z"
     id="path54" />
  <path
     class="cls-10"
     d="m 175.55689,25.67 v 2.84 a 0.19,0.19 0 0 1 -0.19,0.19 h -3.89 a 0.19,0.19 0 0 1 -0.19,-0.19 v -0.87 z"
     id="path56" />
  <path
     class="cls-9"
     d="m 169.75689,28.35 -0.76,0.35 h -3.51 a 0.18,0.18 0 0 1 -0.17,-0.11 l -0.08,-0.18 v 0 l 1.79,-6.36 z"
     id="path58" />
  <polygon
     class="cls-9"
     points="177.36,108.5 177.36,101.41 181.62,105.03 181.62,106.53 "
     id="polygon60"
     transform="translate(-6.0631089,-80.86)" />
  <path
     class="cls-17"
     d="m 167.03689,22.04 -1.79,6.36 -1.6,-3.71 a 0.18,0.18 0 0 0 -0.17,-0.11 h -7.76 a 0.19,0.19 0 0 0 -0.17,0.11 l -0.24,0.55 -3.61,-2.1 0.08,-0.19 6.87,-2.09 h 3.06 a 0.19,0.19 0 0 0 0.17,-0.26 l -0.27,-0.64 4,-1.22 z"
     id="path62" />
  <path
     class="cls-18"
     d="m 158.64689,20.82 -6.87,2.09 v -0.09 l 6,-3.4 -0.5,1.14 a 0.19,0.19 0 0 0 0.17,0.26 h 1.16 z"
     id="path64" />
  <polygon
     class="cls-18"
     points="166.75,98.65 170.37,96.59 171.66,99.57 167.66,100.78 "
     id="polygon66"
     transform="translate(-6.0631089,-80.86)" />
  <polygon
     class="cls-12"
     points="159.92,109.45 157.69,104.12 157.69,104.12 157.75,103.96 161.36,106.09 159.93,109.44 "
     id="polygon68"
     transform="translate(-6.0631089,-80.86)" />
  <path
     class="cls-19"
     d="m 164.30689,15.73 -3.62,2.06 -0.91,-2.11 a 0.19,0.19 0 0 0 -0.35,0 l -1.62,3.75 -6,3.4 0.65,-1.5 v 0 l 6.63,-11.7 h 2.43 a 0.18,0.18 0 0 1 0.17,0.11 z"
     id="path70" />
  <path
     class="cls-20"
     d="m 149.48689,14.98 a 9.45,9.45 0 0 1 0.75,3 z"
     id="path72" />
  <path
     class="cls-20"
     d="m 159.10689,9.59 -6.63,11.7 5,-11.59 a 0.19,0.19 0 0 1 0.17,-0.11 h 1.45 z"
     id="path74" />
  <path
     class="cls-21"
     d="m 150.28689,19.02 a 10,10 0 0 1 -0.66,3.69 l -4.4,-0.64 a 6.39,6.39 0 0 0 0.71,-3 6.26,6.26 0 0 0 -1.47,-4.16 l 1.72,-3.9 a 9.92,9.92 0 0 1 1.2,1 9.41,9.41 0 0 1 2.1,3 l 0.75,3 v 0 c 0.04,0.3 0.05,0.65 0.05,1.01 z"
     id="path76" />
  <path
     class="cls-22"
     d="m 145.40689,24.54 3.84,-1 a 9.59,9.59 0 0 1 -1.85,2.48 z"
     id="path78" />
  <path
     class="cls-22"
     d="m 153.85689,28.59 a 0.19,0.19 0 0 1 -0.17,0.11 h -2.75 l -1.23,-0.93 1.95,-4.51 z"
     id="path80" />
  <path
     class="cls-18"
     d="m 145.40689,24.54 2,1.51 v 0 a 10.2,10.2 0 0 1 -1,0.9 z"
     id="path82" />
  <path
     class="cls-18"
     d="m 150.93689,28.7 h -1.34 a 0.19,0.19 0 0 1 -0.17,-0.26 l 0.29,-0.66 z"
     id="path84" />
  <path
     class="cls-20"
     d="m 149.62689,22.72 a 8.18,8.18 0 0 1 -0.38,0.85 l -3.84,1 -1.27,-1 0.17,-0.17 a 6.2,6.2 0 0 0 0.92,-1.31 z"
     id="path86" />
  <path
     class="cls-22"
     d="m 146.34689,26.95 a 9.7,9.7 0 0 1 -5.39,1.91 l 4.45,-4.33 z"
     id="path88" />
  <path
     class="cls-23"
     d="m 146.18689,10.97 -1.72,3.9 -0.17,-0.2 a 5.24,5.24 0 0 0 -4,-1.8 5.77,5.77 0 0 0 -1.23,0.13 l -1.13,-3.62 a 11,11 0 0 1 2.27,-0.23 9.9,9.9 0 0 1 5.98,1.82 z"
     id="path90" />
  <path
     class="cls-24"
     d="m 145.40689,24.54 -4.47,4.33 h -0.7 a 10,10 0 0 1 -5.59,-1.58 l 0.5,-2.68 h 2.65 a 5.59,5.59 0 0 0 5,0 z"
     id="path92" />
  <path
     class="cls-25"
     d="m 139.03689,13 a 5.26,5.26 0 0 0 -2.8,1.67 6.21,6.21 0 0 0 -1.64,4.21 l -4.24,-1.62 h -0.1 l 0.14,-0.21 4.16,-6.21 a 9.39,9.39 0 0 1 3.38,-1.46 v 0 z"
     id="path94" />
  <path
     class="cls-26"
     d="m 136.73689,23.86 a 5.24,5.24 0 0 0 1.08,0.74 h -2.65 z"
     id="path96" />
  <path
     class="cls-26"
     d="m 145.40689,24.54 h -2.6 a 5.43,5.43 0 0 0 1.33,-1 z"
     id="path98" />
  <path
     class="cls-27"
     d="m 136.73689,23.86 -1.57,0.76 -4.82,-7.26 v 0 l -0.09,-0.13 h 0.1 l 4.24,1.62 c 0,0.05 0,0.1 0,0.15 a 6.2,6.2 0 0 0 1.64,4.35 5.44,5.44 0 0 0 0.5,0.51 z"
     id="path100" />
  <path
     class="cls-28"
     d="m 134.56689,10.81 -4.16,6.21 a 9.26,9.26 0 0 1 2.72,-5 10.17,10.17 0 0 1 1.44,-1.21 z"
     id="path102" />
  <path
     class="cls-26"
     d="m 122.93689,28.7 7.29,-2.42 v 2.23 a 0.19,0.19 0 0 1 -0.19,0.19 z"
     id="path104" />
  <path
     class="cls-26"
     d="m 135.16689,24.63 -0.5,2.68 a 10.15,10.15 0 0 1 -1.54,-1.25 c -0.19,-0.19 -0.37,-0.38 -0.54,-0.57 z"
     id="path106" />
  <path
     class="cls-23"
     d="m 130.18689,25.08 v 1.19 l -7.25,2.43 h -4 l 3.75,-3.8 h 7.3 a 0.19,0.19 0 0 1 0.2,0.18 z"
     id="path108" />
  <path
     class="cls-23"
     d="m 135.16689,24.63 -2.59,0.86 a 9.44,9.44 0 0 1 -2.35,-6.46 10.84,10.84 0 0 1 0.12,-1.66 z"
     id="path110" />
  <path
     class="cls-29"
     d="m 122.69689,24.9 -3.75,3.8 h -1 a 0.19,0.19 0 0 1 -0.19,-0.19 v 0 l 4.26,-12 v 8.26 a 0.19,0.19 0 0 0 0.19,0.18 h 0.47 z"
     id="path112" />
  <path
     class="cls-30"
     d="m 122.04689,9.78 v 1.06 l -0.11,-1.23 a 0.18,0.18 0 0 1 0.11,0.17 z"
     id="path114" />
  <path
     class="cls-31"
     d="m 115.68689,12.61 a 0.19,0.19 0 0 1 0,0.25 l -2.4,2.72 a 0.18,0.18 0 0 1 -0.28,0 6.37,6.37 0 0 0 -3.21,-2.13 l -0.93,-4.25 a 10,10 0 0 1 6.82,3.41 z"
     id="path116" />
  <path
     class="cls-31"
     d="m 119.70689,9.59 -1.92,2 V 9.78 a 0.19,0.19 0 0 1 0.19,-0.19 z"
     id="path118" />
  <path
     class="cls-32"
     d="m 122.04689,10.84 v 4.6 l -4.26,1.18 v -5.08 l 1.92,-2 h 2.15 0.08 z"
     id="path120" />
  <path
     class="cls-33"
     d="m 115.56689,25.14 a 0.19,0.19 0 0 1 0,0.26 c -0.26,0.29 -0.53,0.56 -0.8,0.8 l -1.83,-3.67 a 0.18,0.18 0 0 1 0.17,0.05 z"
     id="path122" />
  <polygon
     class="cls-33"
     points="123.84,109.35 123.84,97.48 128.11,96.31 128.11,97.31 "
     id="polygon124"
     transform="translate(-6.0631089,-80.86)" />
  <path
     class="cls-28"
     d="m 114.77689,26.14 a 9.91,9.91 0 0 1 -4.45,2.46 l 0.25,-4.29 a 6.52,6.52 0 0 0 2.25,-1.75 0.2,0.2 0 0 1 0.11,-0.07 z"
     id="path126" />
  <path
     class="cls-34"
     d="m 110.57689,24.35 -0.25,4.29 c -0.29,0.07 -0.58,0.13 -0.88,0.17 v 0 l -5.85,-0.77 v 0 l -0.39,-0.18 2.7,-3.27 a 5.57,5.57 0 0 0 1.93,0.33 6.51,6.51 0 0 0 2.74,-0.57 z"
     id="path128" />
  <path
     class="cls-35"
     d="m 105.88689,24.6 -2.7,3.27 -0.52,-0.28 v 0 l -3.169999,-3 v 0 a 8.89,8.89 0 0 1 -1,-1.87 l 4.139999,-1.41 a 5.22,5.22 0 0 0 1.25,2 5.42,5.42 0 0 0 2,1.29 z"
     id="path130" />
  <polygon
     class="cls-36"
     points="103.66,92.84 102.78,92.41 104.15,92 "
     id="polygon132"
     transform="translate(-6.0631089,-80.86)" />
  <path
     class="cls-36"
     d="m 109.79689,13.44 a 6.31,6.31 0 0 0 -1.68,-0.22 5.86,5.86 0 0 0 -4.11,1.57 l -0.23,0.22 -3.939999,-1.93 v 0 a 10.25,10.25 0 0 1 0.999999,-1.09 9.81,9.81 0 0 1 7.1,-2.85 c 0.32,0 0.63,0 0.94,0 z"
     id="path134" />
  <polygon
     class="cls-37"
     points="102.94,94.11 102.78,92.41 103.66,92.84 "
     id="polygon136"
     transform="translate(-6.0631089,-80.86)" />
  <path
     class="cls-37"
     d="m 102.29689,19.03 a 6.78,6.78 0 0 0 0.37,2.29 l -4.139999,1.41 a 10.29,10.29 0 0 1 -0.62,-3.64 9.55,9.55 0 0 1 1.95,-6 l 3.939999,1.93 a 5.53,5.53 0 0 0 -1.5,4.01 z"
     id="path138" />
  <polygon
     class="cls-38"
     points="109.65,108.91 109.64,108.9 109.65,108.9 "
     id="polygon140"
     transform="translate(-6.0631089,-80.86)" />
  <path
     class="cls-38"
     d="m 109.43689,28.81 a 9.88,9.88 0 0 1 -1.42,0.1 10.9,10.9 0 0 1 -4.43,-0.87 z"
     id="path142" />
  <path
     class="cls-39"
     d="m 98.806891,9.87 -0.72,1.27 -1.36,0.42 -0.69,-2 h 2.61 a 0.19,0.19 0 0 1 0.16,0.31 z"
     id="path144" />
  <polygon
     class="cls-40"
     points="97.45,107.12 98.42,107.26 98.42,107.76 "
     id="polygon146"
     transform="translate(-6.0631089,-80.86)" />
  <path
     class="cls-34"
     d="m 92.356891,26.9 v 1.61 a 0.19,0.19 0 0 1 -0.19,0.19 h -0.91 l 0.13,-2.44 z"
     id="path148" />
  <polygon
     class="cls-41"
     points="98.42,107.26 97.45,107.12 98.42,106.63 "
     id="polygon150"
     transform="translate(-6.0631089,-80.86)" />
  <path
     class="cls-41"
     d="m 102.65689,27.58 a 9.67,9.67 0 0 1 -1.91,-1.45 9.43,9.43 0 0 1 -1.269999,-1.52 z"
     id="path152" />
  <polygon
     class="cls-42"
     points="95.9,97.57 96.2,97.35 96.35,97.23 96.56,97.08 96.56,97.08 96.56,97.08 102.78,92.41 102.94,94.11 99.38,100.33 "
     id="polygon154"
     transform="translate(-6.0631089,-80.86)" />
  <path
     class="cls-43"
     d="m 93.316891,19.47 -0.94,1.67 a 0.19,0.19 0 0 0 0,0.09 v 4.56 l -1,0.5 -1.54,-9.58 z"
     id="path156" />
  <path
     class="cls-44"
     d="m 90.056891,16.42 a 0.2,0.2 0 0 0 0.08,0.07 l -0.3,0.22 0.16,-0.4 z"
     id="path158" />
  <path
     class="cls-44"
     d="m 96.716891,11.55 -6.22,4.67 3.8,-6.53 a 0.19,0.19 0 0 1 0.16,-0.09 h 1.58 z"
     id="path160" />
  <polygon
     class="cls-45"
     points="94.37,109.56 97.45,107.12 97.32,109.56 "
     id="polygon162"
     transform="translate(-6.0631089,-80.86)" />
  <path
     class="cls-46"
     d="m 80.026891,9.78 v 1.3 l -2.6,-1.49 h 2.41 a 0.19,0.19 0 0 1 0.19,0.19 z"
     id="path164" />
  <path
     class="cls-46"
     d="m 89.936891,16.14 -0.06,0.57 -6.39,-3.67 -1.85,-3.17 a 0.19,0.19 0 0 1 0.16,-0.28 h 4.14 a 0.19,0.19 0 0 1 0.16,0.09 z"
     id="path166" />
  <polygon
     class="cls-47"
     points="95.96,97.01 96.06,97.17 95.9,97.57 "
     id="polygon168"
     transform="translate(-6.0631089,-80.86)" />
  <path
     class="cls-37"
     d="m 91.386891,26.26 -3.08,2.44 v 0 a 0.19,0.19 0 0 1 -0.19,-0.19 v -1.45 z"
     id="path170" />
  <path
     class="cls-48"
     d="M 88.086891,24.53 V 21.2 a 0.19,0.19 0 0 0 0,-0.09 l -1.35,-2.32 3.1,-2.08 1.55,9.55 z"
     id="path172" />
  <path
     class="cls-42"
     d="m 79.266891,28.7 1.06,-2.3 v 2.11 a 0.19,0.19 0 0 1 -0.19,0.19 z"
     id="path174" />
  <polygon
     class="cls-42"
     points="94.15,105.39 97.45,107.12 94.15,107.92 "
     id="polygon176"
     transform="translate(-6.0631089,-80.86)" />
  <path
     class="cls-49"
     d="m 80.026891,11.08 v 2.12 a 0.19,0.19 0 0 1 -0.19,0.19 h -1.8 l -2.1,-3.8 h 1.5 z"
     id="path178" />
  <polygon
     class="cls-49"
     points="89.52,93.91 95.9,97.57 92.8,99.65 "
     id="polygon180"
     transform="translate(-6.0631089,-80.86)" />
  <polygon
     class="cls-50"
     points="79.39,90.61 79.61,90.45 82.03,90.45 84.1,94.25 82.21,94.25 "
     id="polygon182"
     transform="translate(-6.0631089,-80.86)" />
  <path
     class="cls-51"
     d="m 80.326891,25.14 v 1.29 l -1.06,2.3 h -1.46 l -11.11,-5.39 3.81,-0.41 v 1.81 a 0.19,0.19 0 0 0 0.19,0.19 h 9.44 a 0.19,0.19 0 0 1 0.19,0.21 z"
     id="path184" />
  <polygon
     class="cls-52"
     points="79.39,90.61 82.21,94.25 77.61,94.25 "
     id="polygon186"
     transform="translate(-6.0631089,-80.86)" />
  <path
     class="cls-52"
     d="m 79.066891,17.51 v 3.26 a 0.19,0.19 0 0 1 -0.19,0.19 h -8.18 a 0.19,0.19 0 0 0 -0.19,0.19 v 1.78 l -3.81,0.41 3.81,-7.83 v 1.63 a 0.19,0.19 0 0 0 0.19,0.19 h 8.18 a 0.19,0.19 0 0 1 0.19,0.18 z"
     id="path188" />
  <polygon
     class="cls-53"
     points="72.76,104.2 83.87,109.56 74.45,109.56 "
     id="polygon190"
     transform="translate(-6.0631089,-80.86)" />
  <path
     class="cls-54"
     d="m 73.326891,9.75 -1.78,3.64 h -0.85 a 0.19,0.19 0 0 0 -0.19,0.19 v 1.93 l -3.81,7.83 -0.45,-0.73 v -9.56 z"
     id="path192" />
  <path
     class="cls-55"
     d="m 64.146891,9.9 -2.77,3.07 -0.51,-3.39 h 3.14 a 0.19,0.19 0 0 1 0.14,0.32 z"
     id="path194" />
  <path
     class="cls-55"
     d="m 73.326891,9.75 -7.07,3.3 V 9.78 a 0.19,0.19 0 0 1 0.19,-0.19 h 5.88 z"
     id="path196" />
  <path
     class="cls-56"
     d="m 62.276891,25.68 1.78,2.46 -4.32,-1.1 z"
     id="path198" />
  <path
     class="cls-56"
     d="m 68.386891,28.7 h -1.95 a 0.19,0.19 0 0 1 -0.19,-0.19 v -4.94 l 0.45,-0.24 z"
     id="path200" />
  <path
     class="cls-53"
     d="m 64.066891,28.7 h -3.84 l -0.5,-1.66 4.33,1.1 0.17,0.23 a 0.19,0.19 0 0 1 -0.16,0.33 z"
     id="path202" />
  <path
     class="cls-57"
     d="m 60.466891,23.14 1.81,2.55 -2.54,1.35 0.67,-4 z"
     id="path204" />
  <polygon
     class="cls-57"
     points="72.31,103.46 72.76,104.2 72.31,104.43 "
     id="polygon206"
     transform="translate(-6.0631089,-80.86)" />
  <path
     class="cls-58"
     d="m 60.396891,23.04 -0.67,4 -3,-2.07 -2.79,-3.63 a 0.19,0.19 0 0 0 -0.29,0 l -0.9,1 -4.81,-3.31 10.69,-3 -1.69,1.89 a 0.19,0.19 0 0 0 0,0.22 z"
     id="path208" />
  <path
     class="cls-47"
     d="m 60.226891,28.7 h -0.68 a 0.18,0.18 0 0 1 -0.15,-0.08 l -0.78,-1 1.11,-0.54 z"
     id="path210" />
  <polygon
     class="cls-59"
     points="58,91.99 55.91,91.12 58,90.64 "
     id="polygon212"
     transform="translate(-6.0631089,-80.86)" />
  <path
     class="cls-59"
     d="m 61.376891,12.98 -1.35,1.5 -3.89,-1.62 3,-3.21 a 0.19,0.19 0 0 1 0.14,-0.06 h 1.63 z"
     id="path214" />
  <path
     class="cls-60"
     d="m 60.036891,14.47 -1.4,1.56 v 0 l -10.7,3 1.89,-8.77 2.11,0.88 v 5.83 a 0.19,0.19 0 0 0 0.32,0.13 l 3.88,-4.22 z"
     id="path216" />
  <path
     class="cls-61"
     d="m 47.936891,19.03 4.85,3.29 -0.81,0.91 a 0.18,0.18 0 0 0 0,0.12 v 5.16 a 0.19,0.19 0 0 1 -0.19,0.19 h -0.09 z"
     id="path218" />
  <polygon
     class="cls-61"
     points="62.75,105.83 65.8,107.9 64.68,108.43 "
     id="polygon220"
     transform="translate(-6.0631089,-80.86)" />
  <polygon
     class="cls-62"
     points="51.91,104.74 47.99,100.76 51.91,100.2 "
     id="polygon222"
     transform="translate(-6.0631089,-80.86)" />
  <polygon
     class="cls-62"
     points="53.74,106.6 53.74,99.93 54.01,99.89 57.76,109.56 56.65,109.56 "
     id="polygon224"
     transform="translate(-6.0631089,-80.86)" />
  <path
     class="cls-61"
     d="m 41.936891,19.9 3.92,4 v 4.44 a 0.39,0.39 0 0 1 -0.39,0.39 h -4.53 z"
     id="path226" />
  <path
     class="cls-61"
     d="m 50.586891,28.7 h -2.72 a 0.19,0.19 0 0 1 -0.19,-0.19 v -2.77 z"
     id="path228" />
  <polygon
     class="cls-63"
     points="41.48,109.57 39.82,105.57 47.99,100.76 46.96,109.57 "
     id="polygon230"
     transform="translate(-6.0631089,-80.86)" />
  <polygon
     class="cls-64"
     points="51.91,100.2 47.99,100.76 51.91,95.99 "
     id="polygon232"
     transform="translate(-6.0631089,-80.86)" />
  <polygon
     class="cls-64"
     points="53.74,99.93 53.74,93.76 55.91,91.12 54.01,99.89 "
     id="polygon234"
     transform="translate(-6.0631089,-80.86)" />
  <path
     class="cls-65"
     d="m 45.846891,9.97 v 5.17 l -3.91,4.76 -3,-10.33 h 6.47 a 0.4,0.4 0 0 1 0.44,0.4 z"
     id="path236" />
  <polygon
     class="cls-65"
     points="53.74,90.66 55.91,91.12 53.74,93.76 "
     id="polygon238"
     transform="translate(-6.0631089,-80.86)" />
  <polygon
     class="cls-58"
     points="37.84,108.5 39.82,105.57 41.48,109.57 38.59,109.57 "
     id="polygon240"
     transform="translate(-6.0631089,-80.86)" />
  <polygon
     class="cls-66"
     points="42.85,90.43 45.04,90.43 47.99,100.76 37.15,96.17 "
     id="polygon242"
     transform="translate(-6.0631089,-80.86)" />
  <path
     class="cls-67"
     d="m 31.086891,15.31 2.67,9.4 8.18,-4.81 z"
     id="path244" />
  <polygon
     class="cls-50"
     points="37.84,108.5 38.59,109.57 37.8,109.57 "
     id="polygon246"
     transform="translate(-6.0631089,-80.86)" />
  <polygon
     class="cls-68"
     points="36.12,91.03 38.32,90.43 42.85,90.43 37.15,96.17 "
     id="polygon248"
     transform="translate(-6.0631089,-80.86)" />
  <path
     class="cls-69"
     d="m 31.086891,15.31 -13.15,3.04 13.85,9.29 z"
     id="path250" />
  <path
     class="cls-67"
     d="m 31.086891,15.31 0.69,12.32 2,-2.93 z"
     id="path252" />
  <path
     class="cls-68"
     d="m 30.056891,10.14 -12.12,8.21 13.16,-3 z"
     id="path254" />
  <polygon
     class="cls-70"
     points="15.04,109.57 12.64,99.03 23.99,99.21 18.29,109.57 "
     id="polygon256"
     transform="translate(-6.0631089,-80.86)" />
  <path
     class="cls-71"
     d="m 12.086891,9.57 -5.5099999,8.57 -1.4,-8.09 0.2,-0.34 v 0 a 0.36,0.36 0 0 1 0.3,-0.17 h 6.4099999 z"
     id="path258" />
  <path
     class="cls-70"
     d="m 8.9368911,28.71 h -3.3 a 0.35,0.35 0 0 1 -0.31,-0.18 L 0.58689111,20.33 6.5768911,18.14 Z"
     id="path260" />
  <polygon
     class="cls-72"
     points="11.23,90.95 12.64,99.03 8.8,95.17 "
     id="polygon262"
     transform="translate(-6.0631089,-80.86)" />
  <polygon
     class="cls-73"
     points="20.4,90.43 23.99,99.21 36.12,91.03 32.47,90.43 30,90.43 26.21,90.43 "
     id="polygon264"
     transform="translate(-6.0631089,-80.86)" />
  <polygon
     class="cls-73"
     points="12.64,99.03 23.99,99.21 20.4,90.43 18.89,90.43 18.15,90.43 "
     id="polygon266"
     transform="translate(-6.0631089,-80.86)" />
  <polygon
     class="cls-74"
     points="37.8,109.57 37.84,108.5 35.2,109.57 37.32,109.57 "
     id="polygon268"
     transform="translate(-6.0631089,-80.86)" />
  <polygon
     class="cls-67"
     points="26.49,109.57 30,109.57 35.2,109.57 37.84,108.5 23.99,99.21 "
     id="polygon270"
     transform="translate(-6.0631089,-80.86)" />
  <polygon
     class="cls-75"
     points="26.21,109.57 26.49,109.57 23.99,99.21 18.29,109.57 18.89,109.57 "
     id="polygon272"
     transform="translate(-6.0631089,-80.86)" />
  <polygon
     class="cls-62"
     points="79.28,90.45 79.61,90.45 79.39,90.61 "
     id="polygon274"
     transform="translate(-6.0631089,-80.86)" />
  <polygon
     class="cls-76"
     points="79.28,90.45 79.39,90.61 78.39,90.45 "
     id="polygon276"
     transform="translate(-6.0631089,-80.86)" />
  <path
     class="cls-75"
     d="m 51.936891,9.78 -2.1,0.49 0.57,-0.67 h 1.33 a 0.19,0.19 0 0 1 0.2,0.18 z"
     id="path278" />
  <polygon
     class="cls-77"
     points="55.79,90.45 56.48,90.45 55.91,91.12 "
     id="polygon280"
     transform="translate(-6.0631089,-80.86)" />
  <path
     class="cls-68"
     d="m 49.836891,10.26 -2.17,-0.46 v 0 a 0.19,0.19 0 0 1 0.19,-0.19 h 1.86 z"
     id="path282" />
  <polygon
     class="cls-78"
     points="38.32,90.43 37.32,90.43 36.16,90.43 36.12,91.03 "
     id="polygon284"
     transform="translate(-6.0631089,-80.86)" />
  <polygon
     class="cls-79"
     points="35.78,90.43 32.47,90.43 36.12,91.03 "
     id="polygon286"
     transform="translate(-6.0631089,-80.86)" />
  <polygon
     class="cls-71"
     points="36.16,90.43 35.78,90.43 36.12,91.03 "
     id="polygon288"
     transform="translate(-6.0631089,-80.86)" />
  <path
     class="cls-80"
     d="m 20.106891,9.73 -5.35,9.26 a 0.31,0.31 0 0 0 0,0.15 h -3.77 l 7.34,-12.72 a 0.29,0.29 0 0 1 0.11,0.11 v 0 l 1.66,2.89 a 0.32,0.32 0 0 1 0.01,0.31 z"
     id="path290" />
  <path
     class="cls-81"
     d="m 20.106891,28.89 -1.66,2.88 a 0.32,0.32 0 0 1 -0.11,0.11 l -7.4,-12.74 h 3.73 a 0.28,0.28 0 0 0 0,0.14 v 0 l 5.34,9.26 a 0.31,0.31 0 0 1 0.1,0.35 z"
     id="path292" />
  <path
     class="cls-82"
     d="m 18.326891,6.43 -7.34,12.71 v 0 l -1.8399999,3.19 -1.76,-3 a 0.28,0.28 0 0 1 0,-0.14 0.31,0.31 0 0 1 0,-0.15 l 1.78,-3.08 5.4099999,-9.36 a 0.31,0.31 0 0 1 0.27,-0.16 h 3.32 a 0.33,0.33 0 0 1 0.16,-0.01 z"
     id="path294" />
  <path
     class="cls-80"
     d="m 18.326891,31.87 a 0.33,0.33 0 0 1 -0.16,0 h -3.31 a 0.31,0.31 0 0 1 -0.27,-0.16 l -4.9399999,-8.56 -0.49,-0.85 1.7799999,-3.16 z"
     id="path296" />
  <path
     class="cls-82"
     d="m 33.086891,19.14 -7.35,12.72 a 0.34,0.34 0 0 1 -0.11,-0.11 v 0 l -1.69,-2.88 a 0.32,0.32 0 0 1 0,-0.3 l 5.34,-9.26 a 0.31,0.31 0 0 0 0,-0.16 h 3.73 z"
     id="path298" />
  <path
     class="cls-80"
     d="m 36.726891,19.14 a 0.31,0.31 0 0 1 0,0.16 l -7.19,12.45 a 0.31,0.31 0 0 1 -0.27,0.15 h -3.33 a 0.34,0.34 0 0 1 -0.16,0 l 7.31,-12.76 1.85,-3.18 1.75,3 a 0.31,0.31 0 0 1 0.04,0.18 z"
     id="path300" />
  <path
     class="cls-80"
     d="m 33.086891,19.14 h -3.73 a 0.31,0.31 0 0 0 0,-0.16 l -5.42,-9.24 a 0.31,0.31 0 0 1 0,-0.32 l 1.7,-2.88 a 0.34,0.34 0 0 1 0.11,-0.11 z"
     id="path302" />
  <path
     class="cls-81"
     d="m 34.936891,15.96 v 0 l -1.85,3.18 -7.34,-12.71 a 0.34,0.34 0 0 1 0.16,0 h 3.32 a 0.31,0.31 0 0 1 0.27,0.15 z"
     id="path304" />
  <metadata
     id="metadata309">
    <rdf:RDF>
      <cc:Work
         rdf:about="">
        <dc:title>keycloak_deliverables</dc:title>
      </cc:Work>
    </rdf:RDF>
  </metadata>
</svg>
